<?xml version="1.0" encoding="utf-8"?>
<!-- Generator: Adobe Illustrator 24.3.0, SVG Export Plug-In . SVG Version: 6.00 Build 0)  -->
<svg version="1.1" id="Layer_1" xmlns="http://www.w3.org/2000/svg" xmlns:xlink="http://www.w3.org/1999/xlink" x="0px" y="0px"
	 viewBox="0 0 300 300" style="enable-background:new 0 0 300 300;" xml:space="preserve">
<style type="text/css">
	.st0{fill:#0033C6;}
	.st1{fill:#E71A3B;}
	.st2{fill:#FFFFFF;}
</style>
<path id="Caminho_22_1_" class="st0" d="M553.5,147c16.2-5.2,27-20.3,26.9-37.2c0-0.4,0-0.9,0-1.2c0-26.7-21.2-43.4-55.8-43.4h-75.3
	v169.6h77.8c37.6,0,61.6-18.7,61.6-46.4C589.6,167.5,574.3,149.5,553.5,147z"/>
<path class="st1" d="M580.5,109.8H449.3V65.2h75.3c34.7,0,55.9,16.7,55.9,43.4C580.5,109,580.5,109.4,580.5,109.8z"/>
<path id="Caminho_22_3_" class="st0" d="M184.5,147c16.2-5.2,27-20.3,26.9-37.2c0-0.4,0-0.9,0-1.2c0-26.7-21.2-43.4-55.8-43.4H80.3
	v169.6h77.8c37.6,0,61.6-18.7,61.6-46.4C220.6,167.5,205.3,149.5,184.5,147z"/>
<g id="Grupo_14_1_" transform="translate(445.924 347.082)">
	<path id="Caminho_22_2_" class="st2" d="M-349.3-129.4c1.3-0.4,2.2-1.7,2.1-3c0-2.1-1.7-3.5-4.4-3.5h-6v13.4h6.2
		c3,0,4.9-1.5,4.9-3.7C-346.5-127.8-347.7-129.2-349.3-129.4z M-355.7-134.3h3.9c1.8,0,2.8,0.8,2.8,2c0,1.3-1,2.2-3,2.2h-3.7
		L-355.7-134.3z M-351.5-124.1h-4.2v-4.3h4.3c1.9,0,3,0.7,3,2C-348.4-125.1-349.5-124.1-351.5-124.1L-351.5-124.1z"/>
	<path id="Caminho_23_1_" class="st2" d="M-339.2-136l-6,13.5h2l1.5-3.5h6.7l1.5,3.5h2l-6.1-13.5H-339.2z M-340.9-127.7l2.6-6.1
		l2.6,6.1C-335.7-127.7-340.9-127.7-340.9-127.7z"/>
	<path id="Caminho_24_1_" class="st2" d="M-319.9-130h-7.4v-6h-1.9v13.4h1.9v-5.7h7.4v5.7h1.9v-13.4h-1.9V-130z"/>
	<rect id="Retângulo_19_1_" x="-314.3" y="-135.9" class="st2" width="1.9" height="13.4"/>
	<path id="Caminho_25_1_" class="st2" d="M-302.4-136h-1.8l-6,13.5h2l1.5-3.5h6.7l1.5,3.5h2L-302.4-136z M-305.8-127.7l2.6-6.1
		l2.6,6.1C-300.6-127.7-305.8-127.7-305.8-127.7z"/>
</g>
<g id="Grupo_15_1_" transform="translate(339.788 346.76)">
	<path id="Caminho_26_1_" class="st2" d="M-232.9-151.8l-5.7,13.5h3.6l0.9-2.3h5.7l0.9,2.3h3.6l-5.7-13.5H-232.9z M-233-143.4
		l1.8-4.5l1.8,4.5H-233z"/>
	<path id="Caminho_27_1_" class="st2" d="M-215.8-146.2l-1.9-0.4c-1.1-0.2-1.6-0.6-1.6-1.3c0-0.9,0.8-1.4,1.9-1.4
		c1.1-0.1,2.1,0.7,2.2,1.8h3.4c-0.3-3.6-3.6-4.5-5.7-4.5c-3.2,0-5.4,1.7-5.4,4.4c0,2.1,1.2,3.4,3.9,3.9l2.2,0.5
		c1.2,0.2,1.4,0.7,1.4,1.2c0,0.8-0.7,1.2-1.9,1.2c-1.6,0-2.6-0.8-2.8-1.9h-3.4c0.3,3.3,3,4.8,6.1,4.8c3.4,0,5.6-1.7,5.6-4.4
		C-211.7-144.6-213.3-145.7-215.8-146.2z"/>
	<path id="Caminho_28_1_" class="st2" d="M-205.2-151.8l-5.7,13.5h3.6l0.9-2.3h5.7l0.9,2.3h3.6l-5.7-13.5H-205.2z M-205.3-143.4
		l1.8-4.5l1.8,4.5H-205.3z"/>
	<path id="Caminho_29_1_" class="st2" d="M-188-146.2l-1.9-0.4c-1.1-0.2-1.6-0.6-1.6-1.3c0-0.9,0.8-1.4,1.9-1.4
		c1.1-0.1,2.1,0.7,2.2,1.8h3.4c-0.3-3.6-3.6-4.5-5.7-4.5c-3.2,0-5.4,1.7-5.4,4.4c0,2.1,1.2,3.4,3.9,3.9l2.2,0.5
		c1.2,0.2,1.4,0.7,1.4,1.2c0,0.8-0.7,1.2-1.9,1.2c-1.6,0-2.6-0.8-2.8-1.9h-3.4c0.3,3.3,3,4.8,6.1,4.8c3.4,0,5.6-1.7,5.6-4.4
		C-183.9-144.6-185.6-145.7-188-146.2z"/>
	<path id="Caminho_30_1_" class="st2" d="M-242.3-143.8c-0.2,1.6-1.7,2.8-3.3,2.7c-2.1-0.1-3.8-1.9-3.7-4c0.1-2,1.7-3.6,3.7-3.7
		c1.7-0.1,3.1,1.1,3.3,2.7l3.4-0.5c-0.6-3.2-3.4-5.4-6.7-5.3c-3.9,0-7.1,3-7.1,6.9c0,3.8,3,7.1,6.9,7.1c0.1,0,0.1,0,0.2,0
		c3.2,0.1,6.1-2.1,6.7-5.4L-242.3-143.8L-242.3-143.8z"/>
</g>
<path class="st1" d="M211.5,109.8H80.3V65.2h75.3c34.7,0,55.9,16.7,55.9,43.4C211.5,109,211.5,109.4,211.5,109.8z"/>
<text transform="matrix(1 0 0 1 0 -24.1)" style="font-family:'MyriadPro-Regular'; font-size:12px;">Logo</text>
<text transform="matrix(1 0 0 1 369 -24.1)" style="font-family:'MyriadPro-Regular'; font-size:12px;">Avatar</text>
</svg>
